<?xml version="1.0" encoding="UTF-8"?>
<svg xmlns="http://www.w3.org/2000/svg" xmlns:xlink="http://www.w3.org/1999/xlink" width="132px" height="48px" viewBox="0 0 131 48" version="1.1">
<defs>
<linearGradient id="linear0" gradientUnits="userSpaceOnUse" x1="426.75101" y1="732.71002" x2="416.7337" y2="714.04132" gradientTransform="matrix(0.47988,0,0,0.484849,-197.450463,-329.302303)">
<stop offset="0" style="stop-color:rgb(0%,43.921569%,71.372549%);stop-opacity:1;"/>
<stop offset="1" style="stop-color:rgb(11.372549%,17.254902%,36.862745%);stop-opacity:1;"/>
</linearGradient>
<linearGradient id="linear1" gradientUnits="userSpaceOnUse" x1="548.92682" y1="694.57318" x2="561.64203" y2="680.94922" gradientTransform="matrix(0.47988,0,0,0.484849,-197.450463,-329.302303)">
<stop offset="0" style="stop-color:rgb(0%,43.921569%,71.372549%);stop-opacity:1;"/>
<stop offset="1" style="stop-color:rgb(11.372549%,17.254902%,36.862745%);stop-opacity:1;"/>
</linearGradient>
<linearGradient id="linear2" gradientUnits="userSpaceOnUse" x1="493.45309" y1="717.28607" x2="491.9368" y2="704.54773" gradientTransform="matrix(0.47988,0,0,0.484849,-197.450463,-329.302303)">
<stop offset="0" style="stop-color:rgb(0%,43.921569%,71.372549%);stop-opacity:1;"/>
<stop offset="1" style="stop-color:rgb(11.372549%,17.254902%,36.862745%);stop-opacity:1;"/>
</linearGradient>
<linearGradient id="linear3" gradientUnits="userSpaceOnUse" x1="632.34772" y1="714.83398" x2="631.74219" y2="703.336" gradientTransform="matrix(0.47988,0,0,0.484849,-197.450463,-329.302303)">
<stop offset="0" style="stop-color:rgb(7.058824%,36.470588%,61.960784%);stop-opacity:1;"/>
<stop offset="1" style="stop-color:rgb(11.372549%,17.254902%,36.862745%);stop-opacity:1;"/>
</linearGradient>
<linearGradient id="linear4" gradientUnits="userSpaceOnUse" x1="589.91107" y1="698.26068" x2="576.56763" y2="719.48871" gradientTransform="matrix(0.47988,0,0,0.484849,-197.450463,-329.302303)">
<stop offset="0" style="stop-color:rgb(7.058824%,36.470588%,61.960784%);stop-opacity:1;"/>
<stop offset="1" style="stop-color:rgb(11.372549%,17.254902%,36.862745%);stop-opacity:1;"/>
</linearGradient>
<linearGradient id="linear5" gradientUnits="userSpaceOnUse" x1="471.82129" y1="732.30957" x2="480.91931" y2="750.20251" gradientTransform="matrix(0.47988,0,0,0.484849,-197.450463,-329.302303)">
<stop offset="0" style="stop-color:rgb(6.27451%,37.254902%,63.137255%);stop-opacity:1;"/>
<stop offset="1" style="stop-color:rgb(11.372549%,17.254902%,36.862745%);stop-opacity:1;"/>
</linearGradient>
<linearGradient id="linear6" gradientUnits="userSpaceOnUse" x1="437.49219" y1="726.20209" x2="448.0217" y2="750.61151" gradientTransform="matrix(0.47988,0,0,0.484849,-197.450463,-329.302303)">
<stop offset="0" style="stop-color:rgb(6.27451%,37.254902%,63.137255%);stop-opacity:1;"/>
<stop offset="1" style="stop-color:rgb(11.372549%,17.254902%,36.862745%);stop-opacity:1;"/>
</linearGradient>
<linearGradient id="linear7" gradientUnits="userSpaceOnUse" x1="639.70612" y1="-982.76947" x2="655.63483" y2="-982.76947" gradientTransform="matrix(0.47988,0,0,-0.484849,-272.311669,-449.302303)">
<stop offset="0" style="stop-color:rgb(23.529412%,35.294118%,65.098039%);stop-opacity:1;"/>
<stop offset="0.9331" style="stop-color:rgb(16.862745%,45.098039%,72.54902%);stop-opacity:1;"/>
<stop offset="1" style="stop-color:rgb(16.470588%,45.882353%,73.333333%);stop-opacity:1;"/>
</linearGradient>
<linearGradient id="linear8" gradientUnits="userSpaceOnUse" x1="573.17767" y1="-974.57031" x2="838.9209" y2="-974.57031" gradientTransform="matrix(0.47988,0,0,-0.484849,-272.311669,-449.302303)">
<stop offset="0" style="stop-color:rgb(23.529412%,35.294118%,65.098039%);stop-opacity:1;"/>
<stop offset="0.9331" style="stop-color:rgb(16.862745%,45.098039%,72.54902%);stop-opacity:1;"/>
<stop offset="1" style="stop-color:rgb(16.470588%,45.882353%,73.333333%);stop-opacity:1;"/>
</linearGradient>
</defs>
<g id="surface1">
<path style=" stroke:none;fill-rule:nonzero;fill:url(#linear0);" d="M 0.957031 17.726562 L 6.726562 27.566406 L 9.03125 25.347656 L 2.75 15.886719 Z M 0.957031 17.726562 "/>
<path style=" stroke:none;fill-rule:nonzero;fill:rgb(0%,44.313725%,72.54902%);fill-opacity:1;" d="M 86.640625 9.988281 L 86.421875 11.289062 L 89.179688 10.386719 L 88.835938 8.796875 Z M 86.640625 9.988281 "/>
<path style=" stroke:none;fill-rule:nonzero;fill:url(#linear1);" d="M 70.5625 1.128906 L 61.679688 11.417969 L 64.261719 10.667969 L 72.71875 0 Z M 70.5625 1.128906 "/>
<path style=" stroke:none;fill-rule:nonzero;fill:rgb(11.372549%,17.254902%,36.862745%);fill-opacity:1;" d="M 118.074219 15.199219 L 120.253906 14.023438 L 119.628906 19.542969 Z M 118.074219 15.199219 "/>
<path style=" stroke:none;fill-rule:nonzero;fill:rgb(11.372549%,17.254902%,36.862745%);fill-opacity:1;" d="M 104.523438 18.734375 L 106.460938 19.136719 L 108.9375 17.921875 L 106.789062 17.113281 Z M 104.523438 18.734375 "/>
<path style=" stroke:none;fill-rule:nonzero;fill:url(#linear2);" d="M 37.714844 12.878906 L 38.023438 19.269531 L 40.726562 18.164062 L 39.917969 11.679688 Z M 37.714844 12.878906 "/>
<path style=" stroke:none;fill-rule:nonzero;fill:url(#linear3);" d="M 106.621094 10.972656 L 104.441406 12.15625 L 104.523438 18.734375 L 106.714844 17.597656 L 107.402344 14.414062 Z M 106.621094 10.972656 "/>
<path style=" stroke:none;fill-rule:nonzero;fill:rgb(19.215686%,13.72549%,43.921569%);fill-opacity:1;" d="M 106.320312 19.15625 L 103.921875 40.664062 L 107.757812 39.902344 L 108.507812 17.992188 Z M 106.320312 19.15625 "/>
<path style=" stroke:none;fill-rule:nonzero;fill:rgb(12.941176%,21.960784%,43.137255%);fill-opacity:1;" d="M 111.011719 41.695312 L 111.085938 44.613281 L 118.4375 46.984375 L 120.628906 45.808594 L 113.410156 40.164062 L 106.097656 39.515625 L 103.921875 40.664062 Z M 111.011719 41.695312 "/>
<path style=" stroke:none;fill-rule:nonzero;fill:rgb(12.941176%,21.960784%,43.137255%);fill-opacity:1;" d="M 83.726562 36.566406 L 85.535156 35.582031 L 86.6875 37.734375 L 88.390625 36.789062 L 88.730469 39.621094 L 99.421875 41.539062 L 101.558594 40.355469 L 86.816406 31.273438 L 76.355469 33.085938 L 74.316406 35.042969 Z M 83.726562 36.566406 "/>
<path style=" stroke:none;fill-rule:nonzero;fill:url(#linear4);" d="M 80.320312 10.097656 L 78.179688 11.289062 L 74.316406 35.042969 L 76.480469 33.90625 L 80.195312 20.570312 Z M 80.320312 10.097656 "/>
<path style=" stroke:none;fill-rule:nonzero;fill:rgb(11.372549%,17.254902%,36.862745%);fill-opacity:1;" d="M 63.238281 13.28125 L 61.535156 14.203125 L 61.679688 14.773438 L 65.734375 12.167969 L 63.960938 10.246094 L 61.679688 11.417969 Z M 63.238281 13.28125 "/>
<path style=" stroke:none;fill-rule:nonzero;fill:rgb(12.941176%,21.960784%,43.137255%);fill-opacity:1;" d="M 67.902344 41.34375 L 50.460938 32.617188 L 52.652344 30.945312 L 70.070312 40.160156 Z M 67.902344 41.34375 "/>
<path style=" stroke:none;fill-rule:nonzero;fill:rgb(11.372549%,17.254902%,36.862745%);fill-opacity:1;" d="M 52.101562 8.859375 L 49.460938 13.921875 L 52.25 13.070312 L 54.269531 7.675781 Z M 52.101562 8.859375 "/>
<path style=" stroke:none;fill-rule:nonzero;fill:url(#linear5);" d="M 28.132812 29.777344 L 25.902344 31.324219 C 25.902344 31.324219 26.378906 33.839844 26.988281 35.585938 C 27.597656 37.34375 29.058594 38.753906 29.058594 38.753906 C 29.996094 39.679688 31.148438 40.351562 32.429688 40.730469 C 34.894531 41.445312 37.675781 40.980469 40.066406 39.4375 C 40.691406 39.042969 41.539062 38.398438 42.0625 37.898438 C 39.710938 39.335938 28.132812 29.777344 28.132812 29.777344 Z M 28.132812 29.777344 "/>
<path style=" stroke:none;fill-rule:nonzero;fill:rgb(11.372549%,17.254902%,36.862745%);fill-opacity:1;" d="M 40.0625 18.75 L 42.097656 41.425781 L 50.414062 40.183594 L 52.636719 39.007812 L 42.320312 17.390625 L 40.199219 18.113281 L 38.023438 19.269531 Z M 40.0625 18.75 "/>
<path style=" stroke:none;fill-rule:nonzero;fill:url(#linear6);" d="M 8.898438 26.625 L 18.1875 47.910156 L 27.011719 45.035156 L 29.164062 43.570312 L 10.851562 24.207031 L 8.558594 25.597656 L 6.726562 27.566406 Z M 8.898438 26.625 "/>
<path style=" stroke:none;fill-rule:nonzero;fill:rgb(11.372549%,17.254902%,36.862745%);fill-opacity:1;" d="M 100.953125 36.667969 L 101.078125 37.714844 C 101.839844 37.628906 102.640625 37.527344 103.324219 37.28125 C 104.117188 37.003906 105.847656 36.230469 106.503906 35.65625 C 106.257812 35.746094 102.207031 36.804688 100.953125 36.667969 "/>
<path style=" stroke:none;fill-rule:nonzero;fill:rgb(11.372549%,17.254902%,36.862745%);fill-opacity:1;" d="M 69.730469 31.234375 L 70.0625 32.914062 C 71.851562 32.648438 73.386719 31.980469 74.890625 31.066406 C 75.835938 30.496094 76.878906 29.636719 77.203125 29.40625 C 76.972656 29.558594 69.730469 31.234375 69.730469 31.234375 Z M 69.730469 31.234375 "/>
<path style=" stroke:none;fill-rule:nonzero;fill:rgb(100%,79.607843%,1.960784%);fill-opacity:1;" d="M 20.601562 45.890625 L 19.914062 44.34375 L 11.105469 24.484375 L 10.925781 24.078125 L 10.527344 24.261719 L 10.257812 24.390625 L 8.6875 25.167969 C 8.457031 24.773438 8.074219 24.117188 7.804688 23.664062 L 4.261719 17.609375 L 3.335938 16.03125 L 4.867188 15.046875 C 6.320312 14.109375 7.957031 13.25 9.742188 12.480469 C 13.289062 10.953125 16.910156 10.144531 20.214844 10.144531 C 21.300781 10.144531 22.351562 10.234375 23.335938 10.40625 C 24.984375 10.597656 26.507812 11.144531 27.765625 11.988281 C 29.640625 13.050781 31.117188 14.691406 31.949219 16.636719 C 32.632812 18.234375 32.769531 20.105469 32.332031 22.042969 L 32.078125 23.183594 L 33.015625 22.496094 C 33.644531 22.03125 34.332031 21.636719 35.054688 21.320312 C 36.300781 20.785156 37.589844 20.515625 38.886719 20.515625 C 40.109375 20.515625 41.265625 20.761719 42.328125 21.238281 L 43.011719 21.550781 L 42.941406 20.796875 L 42.644531 17.542969 L 42.597656 17.027344 L 42.097656 17.160156 L 40.605469 17.550781 L 40.34375 12.007812 L 51.273438 8.484375 L 51.1875 12.789062 L 52.007812 13 L 54.394531 8.378906 L 61.542969 14.785156 L 61.84375 15.050781 L 62.132812 14.773438 C 63.113281 13.84375 64.273438 13.097656 65.582031 12.558594 L 66.132812 12.332031 L 65.753906 11.867188 L 64.464844 10.28125 L 72.675781 0.722656 L 76.972656 7.203125 L 70.394531 10.777344 L 68.933594 11.574219 L 70.589844 11.605469 C 73.710938 11.671875 76.46875 13.007812 78.367188 15.359375 L 79.050781 16.214844 L 79.492188 16.761719 L 78.761719 17.550781 L 78.269531 18.074219 L 76.628906 19.84375 L 76.320312 20.175781 L 76.652344 20.480469 L 78.191406 21.878906 L 78.789062 22.421875 L 78.917969 21.621094 L 79.507812 17.925781 L 79.660156 16.972656 L 79.664062 16.980469 L 79.820312 16.007812 L 80.703125 10.546875 L 88.949219 10.546875 L 89.011719 10.179688 L 89.167969 9.246094 L 96.261719 9.246094 L 97.980469 20.214844 L 98.09375 20.925781 L 98.667969 20.503906 C 99.363281 19.992188 100.132812 19.570312 100.953125 19.253906 C 102.046875 18.835938 103.171875 18.625 104.296875 18.625 C 105.632812 18.625 106.933594 18.9375 108.058594 19.527344 C 108.089844 19.546875 108.128906 19.574219 108.1875 19.601562 L 108.71875 19.816406 L 108.78125 19.238281 L 108.914062 18.046875 L 108.953125 17.652344 L 108.574219 17.566406 L 107.136719 17.242188 L 107.066406 11.523438 L 118.035156 13.960938 L 118.855469 18.074219 L 119.707031 18.09375 L 120.558594 14.554688 L 129.703125 16.800781 L 120.359375 45.261719 L 113.667969 43.140625 L 113.625 40.519531 L 113.617188 40.144531 L 113.246094 40.089844 L 106.570312 39.140625 L 106.949219 35.710938 L 107.039062 34.898438 L 106.316406 35.269531 C 105.972656 35.445312 105.644531 35.59375 105.332031 35.710938 C 104.242188 36.128906 103.125 36.335938 102.011719 36.335938 C 101.6875 36.335938 101.363281 36.320312 101.046875 36.285156 L 100.480469 36.222656 L 100.570312 36.792969 L 101.039062 39.804688 L 91.300781 38.070312 L 90.789062 33.597656 L 90.625 32.164062 L 89.96875 33.445312 L 88.847656 35.628906 L 86.785156 31.78125 L 86.167969 30.621094 L 85.96875 31.921875 L 85.519531 34.902344 L 76.984375 33.546875 L 77.648438 29.457031 L 77.800781 28.519531 L 76.992188 29.007812 C 75.597656 29.851562 73.988281 30.488281 72.089844 30.953125 C 71.425781 31.117188 70.730469 31.230469 70.023438 31.289062 L 69.625 31.324219 L 69.625 39.445312 L 52.816406 31.054688 L 52.183594 30.738281 L 52.183594 31.453125 L 52.195312 38.628906 L 44.683594 39.746094 L 44.367188 36.300781 L 44.28125 35.378906 L 43.625 36.027344 C 42.632812 37.007812 41.515625 37.769531 40.300781 38.292969 C 39.0625 38.824219 37.78125 39.09375 36.5 39.09375 C 35.21875 39.09375 34.015625 38.820312 32.921875 38.292969 C 30.898438 37.308594 29.4375 35.523438 28.808594 33.269531 C 28.511719 32.210938 28.429688 31.09375 28.566406 29.949219 L 28.714844 28.726562 L 27.835938 29.574219 C 27.210938 30.167969 26.542969 30.738281 25.839844 31.265625 L 25.605469 31.441406 L 25.679688 31.730469 L 28.210938 41.546875 L 28.65625 43.285156 L 26.964844 43.828125 L 22.199219 45.371094 Z M 22.738281 19.539062 C 22.496094 19.539062 22.242188 19.558594 21.984375 19.605469 L 21.660156 19.667969 L 21.183594 19.761719 L 21.328125 20.234375 L 21.421875 20.539062 L 22.785156 25.046875 L 22.917969 25.476562 L 23.121094 26.128906 L 23.625 25.675781 L 23.960938 25.375 C 25.285156 24.175781 25.746094 22.957031 25.464844 21.421875 C 25.289062 20.5 24.585938 20.039062 24.179688 19.847656 C 23.753906 19.640625 23.265625 19.539062 22.738281 19.539062 Z M 59.277344 19.683594 L 58.425781 20.523438 L 56.179688 22.726562 L 55.691406 23.203125 L 58.734375 24.390625 L 59.476562 24.679688 L 59.320312 23.894531 C 59.125 22.882812 59.070312 21.867188 59.164062 20.878906 Z M 69.074219 17.179688 C 68.144531 17.179688 67.246094 17.582031 66.601562 18.289062 C 65.632812 19.359375 65.445312 20.941406 66.136719 22.21875 L 66.316406 22.5625 L 66.613281 23.117188 L 67.023438 22.648438 L 67.292969 22.351562 L 70.582031 18.554688 L 70.839844 18.253906 L 71.257812 17.769531 L 70.664062 17.550781 L 70.296875 17.414062 C 69.90625 17.261719 69.492188 17.179688 69.074219 17.179688 Z M 69.074219 17.179688 "/>
<path style=" stroke:none;fill-rule:nonzero;fill:rgb(49.019608%,49.803922%,40.784314%);fill-opacity:1;" d="M 74.109375 22.804688 C 74.074219 22.828125 74.046875 22.867188 74.023438 22.90625 C 74.054688 22.875 74.085938 22.847656 74.121094 22.820312 Z M 74.109375 22.804688 "/>
<path style=" stroke:none;fill-rule:nonzero;fill:rgb(49.019608%,49.803922%,40.784314%);fill-opacity:1;" d="M 76.945312 20.148438 L 78.589844 18.375 L 78.027344 18.980469 L 78.042969 18.902344 L 77.546875 19.433594 L 75.902344 21.199219 L 77.441406 22.597656 L 77.722656 20.859375 L 78.488281 21.546875 Z M 76.945312 20.148438 "/>
<path style=" stroke:none;fill-rule:nonzero;fill:rgb(49.019608%,49.803922%,40.784314%);fill-opacity:1;" d="M 76.945312 20.148438 L 78.488281 21.546875 L 79.078125 17.851562 L 78.589844 18.375 Z M 76.945312 20.148438 "/>
<path style=" stroke:none;fill-rule:nonzero;fill:rgb(49.019608%,49.803922%,40.784314%);fill-opacity:1;" d="M 56.488281 23.039062 L 56.507812 23.050781 Z M 56.488281 23.039062 "/>
<path style=" stroke:none;fill-rule:nonzero;fill:rgb(78.039216%,62.745098%,3.137255%);fill-opacity:1;" d="M 65.585938 24.578125 C 65.714844 24.710938 65.59375 24.613281 65.742188 24.71875 L 66.746094 24.003906 C 66.597656 23.894531 66.453125 23.78125 66.3125 23.65625 C 64.859375 22.308594 65.234375 19.289062 66.179688 17.636719 C 63.691406 19.667969 63.820312 22.792969 65.585938 24.578125 "/>
<path style=" stroke:none;fill-rule:nonzero;fill:rgb(78.039216%,62.745098%,3.137255%);fill-opacity:1;" d="M 77.722656 26.269531 C 76.058594 27.65625 74.167969 28.5625 71.667969 29.171875 C 71.121094 29.296875 70.582031 29.390625 70.0625 29.4375 C 66.09375 29.832031 62.761719 27.988281 61.5 25.003906 C 61.34375 24.640625 61.21875 24.277344 61.128906 23.882812 C 60.542969 21.371094 61.042969 19.121094 62.273438 17.359375 C 62.394531 17.191406 62.523438 17.023438 62.65625 16.859375 C 62.59375 16.917969 62.53125 16.960938 62.476562 17.015625 C 62.003906 17.4375 61.585938 17.902344 61.230469 18.414062 C 60 20.175781 59.5 22.425781 60.089844 24.933594 C 60.179688 25.324219 60.300781 25.699219 60.453125 26.050781 C 61.714844 29.042969 65.046875 30.886719 69.015625 30.492188 C 69.542969 30.441406 70.074219 30.351562 70.625 30.222656 C 73.128906 29.609375 75.015625 28.710938 76.679688 27.324219 C 77.082031 26.984375 77.476562 26.617188 77.855469 26.214844 L 77.820312 26.183594 C 77.78125 26.210938 77.753906 26.242188 77.722656 26.269531 "/>
<path style=" stroke:none;fill-rule:nonzero;fill:rgb(78.039216%,62.745098%,3.137255%);fill-opacity:1;" d="M 49.75 18.667969 L 54.183594 12.371094 L 54.003906 12.203125 L 49.726562 18.273438 Z M 49.75 18.667969 "/>
<path style=" stroke:none;fill-rule:nonzero;fill:rgb(78.039216%,62.745098%,3.137255%);fill-opacity:1;" d="M 79.078125 17.851562 L 78.488281 21.546875 L 77.722656 20.859375 L 77.441406 22.597656 L 75.902344 21.199219 L 77.546875 19.433594 L 78.042969 18.902344 L 78.027344 18.980469 L 78.589844 18.375 Z M 79.078125 17.851562 "/>
<path style=" stroke:none;fill-rule:nonzero;fill:rgb(78.039216%,62.745098%,3.137255%);fill-opacity:1;" d="M 73.597656 7.480469 L 75.152344 6.804688 L 72.3125 3.128906 L 71.382812 4.441406 Z M 73.597656 7.480469 "/>
<path style=" stroke:none;fill-rule:nonzero;fill:rgb(78.039216%,62.745098%,3.137255%);fill-opacity:1;" d="M 30.605469 16.597656 C 23.4375 7.777344 10.523438 12.515625 5.882812 16.644531 L 6.0625 16.960938 C 7.128906 16.34375 8.253906 15.785156 9.4375 15.28125 C 14.046875 13.292969 18.445312 12.707031 21.96875 13.332031 C 23.214844 13.476562 24.535156 13.847656 25.683594 14.625 C 27.273438 15.523438 28.476562 16.804688 29.183594 18.445312 C 30.433594 21.347656 29.332031 25.210938 26.390625 28.445312 C 30.078125 25.019531 32.609375 21.746094 30.605469 16.597656 Z M 30.605469 16.597656 "/>
<path style=" stroke:none;fill-rule:nonzero;fill:rgb(78.039216%,62.745098%,3.137255%);fill-opacity:1;" d="M 45.230469 26.875 C 45.195312 26.714844 45.160156 26.554688 45.109375 26.394531 C 44.707031 24.929688 43.839844 23.761719 42.699219 22.980469 C 40.863281 21.71875 38.292969 21.457031 35.734375 22.550781 C 34.390625 23.136719 33.21875 24.046875 32.289062 25.125 C 33.003906 24.507812 33.816406 23.992188 34.695312 23.605469 C 37.246094 22.511719 39.816406 22.769531 41.664062 24.035156 C 42.800781 24.8125 43.660156 25.984375 44.070312 27.445312 C 44.121094 27.605469 44.152344 27.769531 44.191406 27.933594 C 44.300781 28.492188 44.347656 29.054688 44.328125 29.632812 C 44.277344 31.320312 43.65625 33.023438 42.625 34.472656 C 42.457031 34.703125 42.285156 34.917969 42.101562 35.128906 C 42.6875 34.621094 43.210938 34.054688 43.660156 33.421875 C 44.695312 31.976562 45.316406 30.273438 45.367188 28.574219 C 45.390625 28.007812 45.34375 27.433594 45.230469 26.875 "/>
<path style=" stroke:none;fill-rule:nonzero;fill:rgb(78.039216%,62.745098%,3.137255%);fill-opacity:1;" d="M 38.167969 24.722656 C 38.164062 24.738281 39.210938 23.671875 39.195312 23.671875 C 37.886719 23.621094 37.328125 24.875 37.285156 24.972656 C 37.554688 24.839844 37.851562 24.753906 38.167969 24.722656 "/>
<path style=" stroke:none;fill-rule:nonzero;fill:rgb(78.039216%,62.745098%,3.137255%);fill-opacity:1;" d="M 40.644531 26.253906 C 40.699219 26.433594 40.722656 26.613281 40.722656 26.808594 C 40.722656 27.082031 40.664062 27.347656 40.554688 27.59375 C 40.765625 27.484375 42.28125 26.738281 41.695312 25.164062 C 41.726562 25.210938 40.605469 26.25 40.644531 26.253906 "/>
<path style=" stroke:none;fill-rule:nonzero;fill:rgb(78.039216%,62.745098%,3.137255%);fill-opacity:1;" d="M 34.667969 27.132812 C 34.667969 26.484375 35.769531 24.90625 36.113281 24.382812 C 34.375 25.5 33.628906 27.003906 33.628906 28.1875 C 33.628906 30.222656 35.394531 31.851562 37.503906 31.851562 C 38.507812 31.851562 40.335938 31.320312 41.53125 29.363281 C 40.902344 29.777344 39.3125 30.777344 38.476562 30.777344 C 36.363281 30.777344 34.667969 29.171875 34.667969 27.132812 "/>
<path style=" stroke:none;fill-rule:nonzero;fill:rgb(78.039216%,62.745098%,3.137255%);fill-opacity:1;" d="M 49.53125 28.992188 L 49.5625 37.210938 L 50.851562 37.285156 L 50.597656 27.914062 Z M 49.53125 28.992188 "/>
<path style=" stroke:none;fill-rule:nonzero;fill:rgb(78.039216%,62.745098%,3.137255%);fill-opacity:1;" d="M 42.121094 13.339844 L 42.148438 14.070312 L 48.265625 12.230469 L 48.722656 20.101562 L 49.742188 18.65625 L 49.523438 10.753906 Z M 42.121094 13.339844 "/>
<path style=" stroke:none;fill-rule:nonzero;fill:rgb(78.039216%,62.745098%,3.137255%);fill-opacity:1;" d="M 60.621094 16.160156 L 54.875 10.828125 L 54.183594 12.371094 L 59.242188 17.171875 Z M 60.621094 16.160156 "/>
<path style=" stroke:none;fill-rule:nonzero;fill:rgb(78.039216%,62.745098%,3.137255%);fill-opacity:1;" d="M 59.746094 26.09375 L 53 23.839844 L 52.015625 24.886719 L 58.738281 27.605469 C 59.5 29.054688 60.65625 30.300781 62.113281 31.207031 C 63.519531 32.082031 65.128906 32.601562 66.832031 32.765625 L 66.832031 36.121094 L 67.875 36.644531 L 68.203125 31.605469 Z M 59.746094 26.09375 "/>
<path style=" stroke:none;fill-rule:nonzero;fill:rgb(78.039216%,62.745098%,3.137255%);fill-opacity:1;" d="M 70.582031 25.144531 C 72.242188 24.738281 73.199219 23.863281 74.019531 22.90625 C 73.402344 23.414062 70.308594 24.097656 69.789062 24.277344 L 68.769531 25.371094 C 69.230469 25.414062 70.011719 25.285156 70.582031 25.144531 "/>
<path style=" stroke:none;fill-rule:nonzero;fill:rgb(78.039216%,62.745098%,3.137255%);fill-opacity:1;" d="M 67.570312 13.546875 C 64.515625 13.953125 62.917969 16.546875 62.65625 16.859375 C 63.785156 15.894531 65.203125 15.183594 66.792969 14.800781 C 70.574219 13.875 73.910156 15.042969 75.96875 17.617188 L 77.246094 16.527344 C 75.203125 13.996094 71.347656 12.625 67.570312 13.546875 "/>
<path style=" stroke:none;fill-rule:nonzero;fill:rgb(78.039216%,62.745098%,3.137255%);fill-opacity:1;" d="M 77.820312 26.183594 C 78.1875 25.867188 78.847656 25.550781 79.191406 25.179688 L 75.097656 21.488281 C 74.785156 21.867188 74.5 22.488281 74.121094 22.820312 Z M 77.820312 26.183594 "/>
<path style=" stroke:none;fill-rule:nonzero;fill:rgb(78.039216%,62.745098%,3.137255%);fill-opacity:1;" d="M 98.820312 36.082031 C 94.53125 32.515625 94.785156 24.871094 96.894531 22.445312 L 95 10.460938 L 90.863281 11.003906 L 90.679688 12.054688 L 93.808594 12.054688 L 95.46875 22.925781 C 93.355469 25.359375 92.339844 28.625 93.042969 31.609375 C 93.589844 33.914062 94.992188 35.777344 97.011719 36.859375 C 97.210938 36.972656 97.425781 37.070312 97.636719 37.164062 L 97.664062 37.324219 L 98.894531 37.519531 C 98.894531 37.519531 99.023438 36.183594 98.820312 36.082031 Z M 98.820312 36.082031 "/>
<path style=" stroke:none;fill-rule:nonzero;fill:rgb(78.039216%,62.745098%,3.137255%);fill-opacity:1;" d="M 82.320312 12.226562 L 82.140625 13.28125 L 86.863281 13.28125 L 88.25 20.980469 L 89.296875 19.914062 L 88.199219 11.78125 Z M 82.320312 12.226562 "/>
<path style=" stroke:none;fill-rule:nonzero;fill:rgb(78.039216%,62.745098%,3.137255%);fill-opacity:1;" d="M 90.398438 27.171875 L 88.875 31.152344 L 89.253906 32.183594 L 91.429688 26.125 Z M 90.398438 27.171875 "/>
<path style=" stroke:none;fill-rule:nonzero;fill:rgb(78.039216%,62.745098%,3.137255%);fill-opacity:1;" d="M 85.875 24.667969 L 84.824219 25.726562 L 83.703125 32.910156 L 84.777344 33.328125 Z M 85.875 24.667969 "/>
<path style=" stroke:none;fill-rule:nonzero;fill:rgb(78.039216%,62.745098%,3.137255%);fill-opacity:1;" d="M 107.070312 22.371094 C 107.683594 22.820312 108.210938 23.386719 108.609375 24.050781 C 108.921875 24.570312 109.160156 25.144531 109.308594 25.777344 C 109.824219 27.933594 109.210938 30.269531 107.847656 32.144531 C 107.714844 32.332031 107.5625 32.515625 107.417969 32.699219 C 107.972656 32.21875 114.671875 27.226562 108.125 20.664062 C 100.921875 18.261719 98.195312 23.011719 97.941406 23.3125 C 98.703125 22.65625 99.578125 22.117188 100.53125 21.75 C 102.96875 20.816406 105.371094 21.140625 107.070312 22.371094 "/>
<path style=" stroke:none;fill-rule:nonzero;fill:rgb(78.039216%,62.745098%,3.137255%);fill-opacity:1;" d="M 103.4375 22.847656 C 103.457031 22.894531 104.472656 21.78125 104.492188 21.78125 C 103.210938 21.832031 102.59375 22.457031 102.65625 22.746094 C 102.582031 22.859375 102.519531 22.96875 102.472656 23.09375 C 102.742188 22.953125 103.246094 22.847656 103.4375 22.847656 "/>
<path style=" stroke:none;fill-rule:nonzero;fill:rgb(78.039216%,62.745098%,3.137255%);fill-opacity:1;" d="M 105.847656 24.476562 C 105.890625 24.648438 105.914062 24.828125 105.910156 25.023438 C 105.898438 25.273438 105.835938 25.503906 105.742188 25.71875 C 105.9375 25.632812 107.492188 25.144531 106.898438 23.414062 C 106.910156 23.464844 105.828125 24.476562 105.847656 24.476562 "/>
<path style=" stroke:none;fill-rule:nonzero;fill:rgb(78.039216%,62.745098%,3.137255%);fill-opacity:1;" d="M 102.445312 29.957031 C 103.894531 30.023438 105.496094 29.121094 106.648438 27.53125 C 103.695312 28.144531 100.59375 23.179688 100.90625 22.691406 C 99.792969 23.507812 98.804688 25.082031 98.761719 26.183594 C 98.683594 28.226562 100.328125 29.871094 102.445312 29.957031 "/>
<path style=" stroke:none;fill-rule:nonzero;fill:rgb(78.039216%,62.745098%,3.137255%);fill-opacity:1;" d="M 118.609375 42.890625 L 119.304688 43.359375 L 127.742188 17.765625 L 121.425781 16.289062 L 121.347656 17.789062 L 126.441406 18.933594 Z M 118.609375 42.890625 "/>
<path style=" stroke:none;fill-rule:nonzero;fill:rgb(78.039216%,62.745098%,3.137255%);fill-opacity:1;" d="M 108.589844 13.546875 L 108.644531 14.976562 L 115.359375 16.339844 L 117.945312 28.730469 L 118.992188 27.664062 L 116.53125 15.144531 Z M 108.589844 13.546875 "/>
<path style=" stroke:none;fill-rule:nonzero;fill:rgb(78.039216%,62.745098%,3.137255%);fill-opacity:1;" d="M 113.757812 27.667969 L 111.910156 38.230469 L 112.972656 38.578125 L 114.808594 26.625 Z M 113.757812 27.667969 "/>
<path style=" stroke:none;fill-rule:nonzero;fill:rgb(78.039216%,62.745098%,3.137255%);fill-opacity:1;" d="M 26.601562 42.109375 L 23.460938 30.605469 L 22.3125 31.414062 L 25.222656 42.4375 Z M 26.601562 42.109375 "/>
<path style=" stroke:none;fill-rule:nonzero;fill:rgb(78.039216%,62.745098%,3.137255%);fill-opacity:1;" d="M 25.789062 24.804688 C 25.0625 25.582031 23.457031 27.09375 22.542969 27.6875 L 21.984375 25.886719 L 20.769531 21.933594 L 19.996094 19.257812 L 19.238281 20.234375 L 20.011719 22.917969 L 21.226562 26.863281 L 21.785156 28.671875 C 23.035156 27.859375 24.859375 26.324219 25.789062 24.804688 "/>
<path style=" stroke:none;fill-rule:nonzero;fill:rgb(49.019608%,49.803922%,40.784314%);fill-opacity:1;" d="M 70.300781 18.003906 C 69.304688 17.617188 67.902344 17.734375 67.144531 18.570312 C 66.96875 18.765625 66.625 19.261719 66.515625 19.480469 C 67.25 18.890625 68.558594 18.765625 69.414062 19.078125 Z M 70.300781 18.003906 "/>
<path style=" stroke:none;fill-rule:nonzero;fill:rgb(49.019608%,49.803922%,40.784314%);fill-opacity:1;" d="M 24.878906 21.574219 C 24.773438 20.980469 24.195312 20.511719 23.917969 20.382812 C 23.410156 20.132812 22.542969 20.097656 21.90625 20.210938 C 22.023438 20.613281 22.152344 21.078125 22.210938 21.269531 C 22.46875 21.308594 22.890625 21.386719 23.109375 21.488281 C 23.390625 21.621094 23.878906 21.945312 23.992188 22.539062 C 24.144531 23.332031 24.101562 24.074219 23.773438 24.679688 C 24.675781 23.785156 25.113281 22.820312 24.878906 21.574219 "/>
<path style=" stroke:none;fill-rule:nonzero;fill:rgb(23.529412%,35.294118%,65.098039%);fill-opacity:1;" d="M 26.457031 21.554688 C 26.023438 19.21875 22.996094 17.929688 19.996094 19.582031 L 20.769531 22.261719 L 21.984375 26.210938 L 22.542969 28.015625 C 24.792969 26.554688 27.058594 24.796875 26.457031 21.554688 Z M 23.476562 25.152344 C 23.148438 24.070312 22.429688 21.738281 22.429688 21.738281 C 22.429688 21.75 22.289062 21.238281 22.117188 20.65625 C 22.75 20.539062 23.363281 20.585938 23.863281 20.832031 C 24.148438 20.964844 24.640625 21.28125 24.75 21.882812 C 24.996094 23.222656 24.546875 24.183594 23.476562 25.152344 Z M 23.476562 25.152344 "/>
<path style=" stroke:none;fill-rule:nonzero;fill:rgb(20.784314%,40.392157%,69.019608%);fill-opacity:1;" d="M 71.867188 17.847656 C 70.191406 16.289062 67.585938 16.410156 66.054688 18.105469 C 64.515625 19.796875 64.632812 22.433594 66.3125 23.980469 C 66.453125 24.113281 66.597656 24.222656 66.746094 24.328125 L 72.160156 18.140625 C 72.0625 18.039062 71.96875 17.9375 71.867188 17.847656 Z M 66.757812 22.199219 C 66.226562 21.21875 66.335938 19.972656 67.128906 19.097656 C 67.890625 18.257812 69.054688 18.023438 70.050781 18.410156 Z M 66.757812 22.199219 "/>
<path style=" stroke:none;fill-rule:nonzero;fill:rgb(11.764706%,17.647059%,37.254902%);fill-opacity:1;" d="M 79.101562 17.164062 L 76.105469 20.082031 L 78.949219 22.664062 Z M 79.101562 17.164062 "/>
<path style=" stroke:none;fill-rule:nonzero;fill:rgb(20.392157%,40%,68.627451%);fill-opacity:1;" d="M 106.890625 23.414062 C 106.933594 23.597656 106.957031 23.78125 106.953125 23.972656 C 106.902344 25.132812 105.824219 26.023438 104.542969 25.964844 C 103.257812 25.921875 102.253906 24.9375 102.300781 23.78125 C 102.347656 22.699219 103.300781 21.84375 104.480469 21.792969 C 104.257812 21.738281 104.019531 21.710938 103.777344 21.703125 C 101.628906 21.609375 99.875 23.144531 99.804688 25.058594 C 99.722656 27.101562 101.34375 28.769531 103.457031 28.863281 C 105.605469 28.949219 107.355469 27.410156 107.441406 25.371094 C 107.46875 24.667969 107.261719 23.992188 106.890625 23.414062 "/>
<path style=" stroke:none;fill-rule:nonzero;fill:url(#linear7);" d="M 41.769531 25.75 C 41.769531 26.914062 40.722656 27.84375 39.445312 27.84375 C 38.164062 27.84375 37.121094 26.914062 37.121094 25.75 C 37.121094 24.667969 38.035156 23.773438 39.210938 23.671875 C 38.984375 23.632812 38.753906 23.605469 38.507812 23.605469 C 36.363281 23.605469 34.667969 25.214844 34.667969 27.132812 C 34.667969 29.175781 36.363281 30.777344 38.476562 30.777344 C 40.625 30.777344 42.316406 29.175781 42.316406 27.132812 C 42.316406 26.421875 42.085938 25.753906 41.683594 25.207031 C 41.742188 25.371094 41.769531 25.554688 41.769531 25.75 "/>
<path style=" stroke:none;fill-rule:nonzero;fill:url(#linear8);" d="M 120.238281 14.015625 L 119.285156 17.984375 L 118.40625 13.59375 L 106.621094 10.972656 L 106.703125 17.589844 L 108.480469 17.996094 L 108.351562 19.1875 C 108.328125 19.179688 108.3125 19.167969 108.300781 19.15625 C 106.101562 17.980469 103.371094 17.859375 100.800781 18.839844 C 99.9375 19.171875 99.140625 19.613281 98.414062 20.144531 L 96.636719 8.804688 L 88.800781 8.804688 L 88.582031 10.109375 L 80.332031 10.109375 L 79.390625 15.9375 L 78.707031 15.085938 C 76.707031 12.605469 73.8125 11.234375 70.597656 11.167969 L 77.601562 7.363281 L 72.71875 0 L 63.894531 10.273438 L 65.417969 12.148438 C 64.039062 12.71875 62.832031 13.503906 61.832031 14.453125 L 54.269531 7.671875 L 51.621094 12.796875 L 51.726562 7.871094 L 39.894531 11.6875 L 40.199219 18.113281 L 42.210938 17.582031 L 42.507812 20.839844 C 40.210938 19.796875 37.445312 19.820312 34.878906 20.914062 C 34.121094 21.246094 33.410156 21.660156 32.761719 22.140625 C 33.203125 20.15625 33.097656 18.203125 32.351562 16.457031 C 31.46875 14.398438 29.914062 12.699219 28.011719 11.621094 C 26.671875 10.726562 25.082031 10.164062 23.414062 9.972656 C 19.320312 9.25 14.40625 9.992188 9.570312 12.074219 C 7.792969 12.839844 6.132812 13.710938 4.636719 14.671875 L 2.746094 15.886719 L 3.882812 17.835938 L 7.429688 23.886719 C 7.429688 23.886719 8.515625 25.738281 8.523438 25.738281 L 10.441406 24.789062 L 10.703125 24.664062 L 19.511719 44.523438 L 20.363281 46.433594 L 22.328125 45.792969 L 27.09375 44.25 L 29.183594 43.578125 L 28.632812 41.433594 L 26.101562 31.617188 C 26.828125 31.074219 27.507812 30.496094 28.136719 29.890625 C 27.996094 31.0625 28.070312 32.25 28.386719 33.386719 C 29.046875 35.765625 30.589844 37.644531 32.730469 38.6875 C 35.042969 39.808594 37.863281 39.8125 40.472656 38.695312 C 41.78125 38.132812 42.945312 37.316406 43.933594 36.339844 L 44.292969 40.253906 L 52.636719 39.007812 L 52.625 31.449219 L 70.0625 40.15625 L 70.0625 31.726562 C 70.757812 31.664062 71.476562 31.554688 72.195312 31.375 C 74.113281 30.90625 75.757812 30.265625 77.21875 29.382812 L 76.484375 33.90625 L 85.886719 35.402344 L 86.402344 31.984375 L 88.859375 36.570312 L 90.359375 33.644531 L 90.90625 38.445312 L 101.566406 40.34375 L 101.003906 36.71875 C 102.460938 36.886719 104 36.691406 105.484375 36.125 C 105.835938 35.992188 106.183594 35.832031 106.515625 35.660156 L 106.09375 39.515625 L 113.1875 40.527344 L 113.238281 43.464844 L 120.636719 45.8125 L 130.269531 16.480469 Z M 78.589844 18.375 L 79.078125 17.851562 L 78.488281 21.550781 L 76.949219 20.148438 Z M 72.34375 3.269531 L 74.925781 6.8125 L 67.539062 10.515625 L 67.03125 9.730469 Z M 23.449219 30.605469 L 26.394531 42.027344 L 21.625 43.5625 L 11.839844 21.488281 C 11.308594 21.769531 10.328125 22.246094 9.425781 22.691406 L 5.878906 16.640625 C 7.292969 15.734375 8.832031 14.929688 10.476562 14.226562 C 15.089844 12.246094 19.492188 11.65625 23.011719 12.28125 C 24.257812 12.421875 25.574219 12.796875 26.730469 13.570312 C 28.3125 14.472656 29.527344 15.753906 30.226562 17.390625 C 31.929688 21.367188 29.082031 27.09375 23.449219 30.605469 Z M 45.367188 28.570312 C 45.316406 30.273438 44.695312 31.976562 43.660156 33.421875 C 42.679688 34.8125 41.304688 35.960938 39.6875 36.667969 C 35.546875 38.4375 31.414062 36.667969 30.308594 32.699219 C 29.234375 28.859375 31.726562 24.292969 35.734375 22.546875 C 38.292969 21.457031 40.863281 21.714844 42.703125 22.980469 C 43.839844 23.761719 44.707031 24.929688 45.109375 26.394531 C 45.160156 26.554688 45.195312 26.714844 45.230469 26.875 C 45.34375 27.433594 45.390625 28.007812 45.367188 28.570312 Z M 67.875 36.644531 L 50.574219 27.902344 L 50.605469 37.066406 L 46.128906 37.679688 L 45.816406 33.902344 C 47.199219 31.511719 47.707031 28.691406 46.984375 26.105469 C 46.589844 24.679688 45.855469 23.445312 44.863281 22.453125 L 44.222656 14.757812 L 42.210938 15.285156 L 42.121094 13.339844 L 49.308594 11.175781 L 49.75 18.664062 L 55.046875 11.148438 L 60.222656 16.128906 L 52.984375 23.835938 L 59.78125 26.554688 C 60.542969 28.007812 61.703125 29.242188 63.15625 30.152344 C 64.5625 31.03125 66.171875 31.546875 67.875 31.71875 Z M 58.890625 23.980469 L 56.488281 23.039062 L 58.726562 20.839844 C 58.632812 21.851562 58.683594 22.910156 58.890625 23.980469 Z M 77.722656 26.269531 C 76.058594 27.65625 74.167969 28.5625 71.667969 29.171875 C 71.121094 29.296875 70.582031 29.390625 70.0625 29.4375 C 66.09375 29.832031 62.761719 27.988281 61.5 25.003906 C 61.34375 24.640625 61.21875 24.277344 61.128906 23.882812 C 60.542969 21.371094 61.042969 19.121094 62.273438 17.359375 C 62.628906 16.84375 63.046875 16.378906 63.519531 15.957031 C 64.679688 14.914062 66.15625 14.152344 67.839844 13.742188 C 71.617188 12.824219 74.949219 13.988281 76.988281 16.519531 L 69.785156 24.269531 C 70.273438 24.359375 71.050781 24.234375 71.625 24.09375 C 73.339844 23.671875 74.300781 22.75 75.148438 21.746094 L 78.027344 24.363281 L 78.898438 25.164062 C 78.519531 25.554688 78.125 25.925781 77.722656 26.269531 Z M 93.003906 36.609375 L 91.441406 26.121094 L 89.222656 31.910156 L 85.90625 24.675781 L 85.867188 24.675781 L 84.558594 33.050781 L 79.023438 32.078125 L 79.800781 27.40625 C 80.011719 27.207031 80.214844 27.007812 80.417969 26.796875 L 82.210938 24.933594 L 80.46875 23.355469 L 82.320312 12.226562 L 87.898438 12.226562 L 89.296875 19.929688 L 90.863281 11 L 94.855469 11 L 96.507812 21.878906 C 94.402344 24.304688 93.378906 27.566406 94.085938 30.550781 C 94.625 32.863281 96.035156 34.726562 98.050781 35.816406 C 98.253906 35.917969 98.464844 36.019531 98.683594 36.109375 L 98.890625 37.519531 Z M 106.792969 33.191406 C 106.179688 33.628906 105.511719 34.003906 104.785156 34.273438 C 103.363281 34.824219 101.949219 34.933594 100.683594 34.683594 C 99.804688 34.507812 99 34.160156 98.300781 33.660156 C 97.191406 32.847656 96.375 31.644531 96.015625 30.140625 C 95.59375 28.335938 95.984375 26.402344 96.941406 24.710938 C 97.425781 23.886719 98.039062 23.109375 98.769531 22.441406 C 99.578125 21.703125 100.519531 21.101562 101.570312 20.691406 C 104.007812 19.773438 106.414062 20.09375 108.105469 21.324219 C 108.730469 21.769531 109.25 22.335938 109.65625 22.996094 C 109.964844 23.515625 110.207031 24.089844 110.351562 24.71875 C 110.867188 26.890625 110.25 29.214844 108.894531 31.085938 C 108.316406 31.886719 107.605469 32.605469 106.792969 33.191406 Z M 119.246094 43.078125 L 115.15625 41.851562 L 114.800781 26.613281 L 112.742188 38.367188 L 108.277344 37.644531 L 108.601562 34.265625 C 111.511719 31.773438 113.054688 27.851562 112.210938 24.292969 C 111.839844 22.71875 111.039062 21.347656 109.90625 20.304688 L 110.285156 16.3125 L 108.597656 15.859375 L 108.710938 13.730469 L 116.398438 15.292969 L 118.984375 27.675781 L 121.636719 16.570312 L 127.484375 17.875 Z M 119.246094 43.078125 "/>
<path style=" stroke:none;fill-rule:nonzero;fill:rgb(0%,0%,0%);fill-opacity:1;" d="M 122.605469 44.523438 L 122.605469 43.371094 L 122.179688 43.371094 L 122.179688 43.21875 L 123.203125 43.21875 L 123.203125 43.371094 L 122.777344 43.371094 L 122.777344 44.523438 Z M 122.605469 44.523438 "/>
<path style=" stroke:none;fill-rule:nonzero;fill:rgb(0%,0%,0%);fill-opacity:1;" d="M 123.375 44.523438 L 123.375 43.21875 L 123.632812 43.21875 L 123.941406 44.140625 C 123.964844 44.226562 123.988281 44.296875 124 44.335938 C 124.015625 44.289062 124.039062 44.21875 124.070312 44.125 L 124.378906 43.21875 L 124.609375 43.21875 L 124.609375 44.523438 L 124.445312 44.523438 L 124.445312 43.433594 L 124.066406 44.523438 L 123.914062 44.523438 L 123.539062 43.414062 L 123.539062 44.523438 Z M 123.375 44.523438 "/>
</g>
</svg>
